<svg width="1161" height="178" viewBox="0 0 1161 178" fill="none" xmlns="http://www.w3.org/2000/svg">
<path d="M0 176.5H35C49.3594 176.5 61 164.859 61 150.5V28C61 13.6406 72.6406 2 87 2H292C306.359 2 318 13.6406 318 28V83.5C318 97.8594 329.641 109.5 344 109.5H434.5M434.5 109.5V55.75M434.5 109.5V144.5C434.5 158.859 446.141 170.5 460.5 170.5H662.25M434.5 109.5H662.25M434.5 55.75V28C434.5 13.6406 446.141 2 460.5 2H662.25M434.5 55.75H662.25" stroke="white" stroke-opacity="0.17" stroke-width="3" stroke-dasharray="6 6"/>
<path opacity="0.82" d="M890 109.5H984C998.359 109.5 1010 97.8594 1010 83.5V28C1010 13.6406 1021.64 2 1036 2H1161M890 109.5V55.75M890 109.5V144.5C890 158.859 878.359 170.5 864 170.5H662.25M890 109.5H662.25M890 55.75V28C890 13.6406 878.359 2 864 2H662.25M890 55.75H662.25" stroke="white" stroke-opacity="0.17" stroke-width="3"/>
</svg>
