<svg width="274" height="480" viewBox="0 0 274 480" fill="none" xmlns="http://www.w3.org/2000/svg">
<path d="M131.847 0V131.747M131.847 131.747H262C267.523 131.747 272 136.224 272 141.747V174.044M131.847 131.747H12C6.47715 131.747 2 136.224 2 141.747V174.044M131.847 337.628H262C267.523 337.628 272 333.151 272 327.628V294.312M131.847 337.628H12C6.47715 337.628 2 333.151 2 327.628V294.312M131.847 337.628V480M2 174.044H272M2 174.044V213.284M272 174.044V213.284M272 213.284H2M272 213.284V254.053M2 213.284V254.053M2 254.053H272M2 254.053V294.312M272 254.053V294.312M272 294.312H2" stroke="white" stroke-opacity="0.3" stroke-width="3"/>
</svg>
