<svg width="397" height="85" viewBox="0 0 397 85" fill="none" xmlns="http://www.w3.org/2000/svg">
<path d="M0 26.5H51C56.5228 26.5 61 22.0228 61 16.5V11C61 5.47715 65.4772 1 71 1H99C104.523 1 109 5.47715 109 11V28C109 33.5228 113.481 38 119.004 38C134.928 38 146.39 38 164.5 38M164.5 38V25M164.5 38V55.5M287 25V11C287 5.47715 282.523 1 277 1H174.5C168.977 1 164.5 5.47715 164.5 11V25M287 25H164.5M287 25V40.25M164.5 55.5H287M164.5 55.5V74C164.5 79.5228 168.977 84 174.5 84H277C282.523 84 287 79.5228 287 74V55.5M287 55.5V40.25M287 40.25H336.5C342.023 40.25 346.5 35.7728 346.5 30.25V29C346.5 23.4772 350.977 19 356.5 19H397" stroke="black"/>
</svg>
