<svg width="31" height="46" viewBox="0 0 31 46" fill="none" xmlns="http://www.w3.org/2000/svg">
<path d="M29.552 21.496L24.368 16.504V4.696L29.552 -0.00800133V21.496ZM0.32 -0.00800133L5.504 4.984V16.792L0.32 21.496V-0.00800133ZM16.016 33.784L15.776 31.624L19.952 32.056L29.6 40.984L30.272 45.112L26.096 44.776L16.448 35.848L16.016 33.784ZM29.648 23.176V38.824L24.464 34.168V28.072L29.648 23.176ZM0.416 38.824V23.176L5.6 27.832V33.928L0.416 38.824ZM14.384 33.784L13.952 35.848L4.304 44.776L0.128 45.112L0.8 40.984L10.448 32.056L14.624 31.624L14.384 33.784Z" fill="white"/>
</svg>
